<svg id="Capa_1" enable-background="new 0 0 510 510" height="512" viewBox="0 0 510 510" width="512" xmlns="http://www.w3.org/2000/svg"><g><path id="XMLID_1041_" d="m240 330v75h-78.75l56.25-75-18-10-19.5 10-117 156 24 18 51.75-69h101.25v75h15l7-95-7-85-7-10z" fill="#3e4f55"/><path id="XMLID_999_" d="m423 504 24-18-117-156-15.333-10-22.167 10 56.25 75h-78.75v-75l-7.667-10-7.333 10v180h15v-75h101.25z" fill="#303d42"/><path id="XMLID_1048_" d="m255 300-105 10-120-10v-300h225l15 135z" fill="#f1f5fd"/><path id="XMLID_1501_" d="m480 300-119.667 10-105.333-10v-300h225z" fill="#dce6f4"/><path id="XMLID_357_" d="m90 240 75 15 75-15v-60l-75-15-75 15z" fill="#ff7038"/><path id="XMLID_995_" d="m90 240h150v30h-150z" fill="#ff405c"/><path id="XMLID_356_" d="m231.708 133.043c-14.404-7.203-21.708-17.828-21.708-31.584v-11.459l-45-15-45 15v11.459c0 13.756-7.304 24.381-21.708 31.584l-8.292 4.146v42.811h150v-42.811z" fill="#dce6f4"/><g id="XMLID_1483_"><g><path id="XMLID_76_" d="m270 60h150v30h-150z" fill="#69b4f4"/></g></g><g id="XMLID_1481_"><g><path id="XMLID_78_" d="m270 120h120v30h-120z" fill="#69b4f4"/></g></g><path id="XMLID_1480_" d="m330 180h90v90h-90z" fill="#ff405c"/><g id="XMLID_1475_"><g><g id="XMLID_81_"><path d="m270 180h30v30h-30z" fill="#ff405c"/></g></g></g><g id="XMLID_1473_"><g><path id="XMLID_82_" d="m270 240h30v30h-30z" fill="#2ade7a"/></g></g><path id="XMLID_693_" d="m30 300v30h225l10-14-10-16z" fill="#f1f5fd"/><path id="XMLID_911_" d="m255 300h225v30h-225z" fill="#dce6f4"/><path id="XMLID_1489_" d="m90 60h150v30h-150z" fill="#596c76"/></g></svg>