<svg height="512" viewBox="0 0 128 128" width="512" xmlns="http://www.w3.org/2000/svg"><g id="Circle_Grid" data-name="Circle Grid"><circle cx="64" cy="64" fill="#2cbfae" r="64"/></g><g id="icon"><rect fill="#575b6d" height="57.285" rx="4.774" width="82" x="23" y="23.714"/><path d="m27.774 27.665h72.453a.823.823 0 0 1 .823.823v47.737a.824.824 0 0 1 -.824.824h-72.451a.824.824 0 0 1 -.824-.824v-47.737a.823.823 0 0 1 .823-.823z" fill="#eeefee"/><path d="m56.013 84.633-.222.564-.752 1.913-6.2 15.8a2.14 2.14 0 0 1 -2.016 1.367 2.368 2.368 0 0 1 -.683-.1 2.162 2.162 0 0 1 -1.315-2.853l5.636-14.214.769-1.91.222-.564z" fill="#f6b863"/><path d="m83.329 102.126a2.157 2.157 0 0 1 -4.168.786l-6.2-15.8-.753-1.912-.222-.564h4.579l.222.564.752 1.913 5.638 14.213a2.162 2.162 0 0 1 .152.8z" fill="#f6b863"/><path d="m66.178 84.633v14.982a2.169 2.169 0 0 1 -2.17 2.153h-.017a2.154 2.154 0 0 1 -2.153-2.153v-14.982z" fill="#f6b863"/><path d="m84.662 83.1a2.1 2.1 0 0 1 -2.1 2.1h-37.123a2.1 2.1 0 0 1 0-4.2h37.122a2.1 2.1 0 0 1 2.101 2.1z" fill="#f6b863"/><path d="m51.23 85.197h4.561l-.752 1.913h-4.578z" fill="#eaa14e"/><path d="m61.838 85.197h4.339v1.913h-4.339z" fill="#eaa14e"/><path d="m77.538 87.11h-4.578l-.752-1.913h4.578z" fill="#eaa14e"/><path d="m77.587 62.044-5.485-6.388-5.596 5.603-2.419-2.414 8.205-8.213 5.492 6.396 17.193-17.12 2.413 2.42z" fill="#ef5261"/><g fill="#dbd8dd"><path d="m32.404 31.809h37.686v2.104h-37.686z"/><path d="m32.404 37.717h37.686v2.104h-37.686z"/><path d="m32.404 43.625h20.959v2.104h-20.959z"/><path d="m32.404 55.441h20.959v2.399h-20.959z"/><path d="m32.404 62.177h20.959v2.399h-20.959z"/><path d="m32.404 68.914h63.69v2.399h-63.69z"/></g></g></svg>